<svg xmlns="http://www.w3.org/2000/svg" viewBox="0 0 1440 900" fill="none" aria-hidden="true">
  <defs>
    <linearGradient id="sky-wash" x1="0" y1="0" x2="0" y2="1">
      <stop offset="0%" stop-color="#f7f3ec" stop-opacity="0.62"/>
      <stop offset="45%" stop-color="#f0e9dc" stop-opacity="0.2"/>
      <stop offset="100%" stop-color="#ebe2d2" stop-opacity="0"/>
    </linearGradient>
    <linearGradient id="hill-far" x1="0" y1="0" x2="0" y2="1">
      <stop offset="0%" stop-color="#e9ecdd" stop-opacity="0"/>
      <stop offset="100%" stop-color="#dde3cf" stop-opacity="0.55"/>
    </linearGradient>
    <linearGradient id="hill-mid" x1="0" y1="0" x2="0" y2="1">
      <stop offset="0%" stop-color="#dde3cf" stop-opacity="0"/>
      <stop offset="100%" stop-color="#c8d4b8" stop-opacity="0.48"/>
    </linearGradient>
    <linearGradient id="hill-near" x1="0" y1="0" x2="0" y2="1">
      <stop offset="0%" stop-color="#c8d4b8" stop-opacity="0"/>
      <stop offset="100%" stop-color="#b5c4a4" stop-opacity="0.44"/>
    </linearGradient>
    <linearGradient id="hill-front" x1="0" y1="0" x2="0" y2="1">
      <stop offset="0%" stop-color="#b5c4a4" stop-opacity="0"/>
      <stop offset="100%" stop-color="#a8b896" stop-opacity="0.36"/>
    </linearGradient>
    <linearGradient id="path-fill" x1="0" y1="0" x2="1" y2="0">
      <stop offset="0%" stop-color="#ddd1be" stop-opacity="0.42"/>
      <stop offset="100%" stop-color="#d5cabb" stop-opacity="0.28"/>
    </linearGradient>
    <linearGradient id="pond" x1="0" y1="0" x2="0" y2="1">
      <stop offset="0%" stop-color="#dde3cf" stop-opacity="0.5"/>
      <stop offset="100%" stop-color="#c8d4b8" stop-opacity="0.35"/>
    </linearGradient>
    <pattern id="trellis" width="16" height="16" patternUnits="userSpaceOnUse">
      <path d="M0 16 V0 M16 16 V0 M0 0 H16 M0 8 H16 M0 16 H16" stroke="#bfb09a" stroke-opacity="0.22" stroke-width="1"/>
    </pattern>
  </defs>

  <rect width="1440" height="900" fill="url(#sky-wash)"/>

  <!-- clouds -->
  <g fill="#fffef9" fill-opacity="0.58">
    <ellipse cx="180" cy="95" rx="78" ry="24"/><ellipse cx="230" cy="84" rx="56" ry="18"/><ellipse cx="130" cy="88" rx="48" ry="16"/>
    <ellipse cx="420" cy="110" rx="68" ry="20"/><ellipse cx="470" cy="100" rx="44" ry="15"/>
    <ellipse cx="720" cy="75" rx="96" ry="26"/><ellipse cx="780" cy="64" rx="62" ry="20"/><ellipse cx="660" cy="70" rx="50" ry="17"/>
    <ellipse cx="1020" cy="92" rx="118" ry="32"/><ellipse cx="1085" cy="80" rx="78" ry="24"/><ellipse cx="940" cy="88" rx="62" ry="20"/>
    <ellipse cx="1280" cy="105" rx="72" ry="22"/><ellipse cx="1330" cy="96" rx="48" ry="16"/>
  </g>

  <!-- sun + rays -->
  <g fill="#ead9c8" fill-opacity="0.3">
    <circle cx="1210" cy="125" r="64"/><circle cx="1210" cy="125" r="44" fill="#f7f3ec" fill-opacity="0.35"/>
    <path d="M1210 48 V68 M1210 182 V202 M1133 125 H1153 M1267 125 H1287 M1155 70 L1169 84 M1251 166 L1265 180 M1251 84 L1265 70 M1155 180 L1169 166"/>
    <path stroke="#ead9c8" stroke-opacity="0.22" stroke-width="2" d="M1210 58 V78 M1210 172 V192 M1143 125 H1163 M1257 125 H1277"/>
  </g>

  <!-- hills -->
  <path fill="url(#hill-far)" d="M0 470 C180 420 360 440 580 410 C800 380 1020 400 1240 370 C1340 355 1400 360 1440 355 V900 H0 Z"/>
  <path fill="url(#hill-mid)" d="M0 550 C240 490 480 520 720 490 C960 460 1180 500 1440 470 V900 H0 Z"/>
  <path fill="url(#hill-near)" d="M0 630 C300 570 580 610 860 580 C1080 555 1260 590 1440 565 V900 H0 Z"/>
  <path fill="url(#hill-front)" d="M0 710 C360 650 680 690 980 660 C1180 635 1320 670 1440 645 V900 H0 Z"/>

  <!-- distant tree line -->
  <g fill="#dde3cf" fill-opacity="0.4" stroke="#5a6442" stroke-opacity="0.22" stroke-width="1.2">
    <ellipse cx="500" cy="430" rx="18" ry="28"/><ellipse cx="540" cy="425" rx="14" ry="22"/><ellipse cx="580" cy="432" rx="16" ry="24"/>
    <ellipse cx="860" cy="418" rx="20" ry="30"/><ellipse cx="900" cy="422" rx="15" ry="23"/><ellipse cx="940" cy="415" rx="17" ry="26"/>
  </g>

  <!-- left terraced beds -->
  <path fill="#dde3cf" fill-opacity="0.36" stroke="#bfb09a" stroke-opacity="0.38" stroke-width="1.5" d="M0 740 C60 700 100 680 150 660 C190 645 215 635 250 625 V900 H0 Z"/>
  <path fill="#c8d4b8" fill-opacity="0.22" stroke="#bfb09a" stroke-opacity="0.3" d="M0 790 C40 765 80 750 120 735 C155 722 185 712 210 705 V900 H0 Z"/>
  <!-- right terraced beds -->
  <path fill="#dde3cf" fill-opacity="0.34" stroke="#bfb09a" stroke-opacity="0.38" stroke-width="1.5" d="M1440 755 C1380 710 1330 680 1280 655 C1240 635 1200 620 1160 605 V900 H1440 Z"/>
  <path fill="#c8d4b8" fill-opacity="0.2" stroke="#bfb09a" stroke-opacity="0.3" d="M1440 805 C1400 775 1360 755 1320 738 C1285 724 1255 714 1230 705 V900 H1440 Z"/>

  <!-- center meadow patch -->
  <ellipse cx="720" cy="720" rx="200" ry="55" fill="#dde3cf" fill-opacity="0.28" stroke="#bfb09a" stroke-opacity="0.25"/>

  <!-- pond -->
  <ellipse cx="580" cy="670" rx="95" ry="38" fill="url(#pond)" stroke="#a8b896" stroke-opacity="0.4" stroke-width="1.5"/>
  <ellipse cx="565" cy="662" rx="42" ry="12" fill="#fffef9" fill-opacity="0.25"/>
  <path stroke="#5a6442" stroke-opacity="0.3" stroke-width="1.4" d="M520 668 C540 660 560 656 580 658 C600 660 620 664 640 668"/>
  <!-- lily pads -->
  <g fill="#5a6442" fill-opacity="0.22" stroke="#5a6442" stroke-opacity="0.28">
    <ellipse cx="550" cy="672" rx="14" ry="6"/><ellipse cx="610" cy="678" rx="12" ry="5"/><ellipse cx="595" cy="665" rx="10" ry="4"/>
  </g>
  <!-- reeds -->
  <g stroke="#5a6442" stroke-opacity="0.35" stroke-width="1.4" stroke-linecap="round">
    <path d="M490 680 V640 M495 655 C488 645 482 638 476 632"/><path d="M670 685 V645 M665 660 C672 648 678 640 684 634"/>
    <path d="M500 675 V638 M505 650 C498 640 492 633 486 627"/><path d="M660 680 V642 M655 658 C662 646 668 638 674 632"/>
  </g>

  <!-- main path -->
  <path fill="url(#path-fill)" d="M60 900 C200 760 280 700 370 645 C450 595 520 565 610 525 C700 485 800 435 910 400 C1020 365 1130 345 1370 315 L1395 338 C1155 368 1045 388 935 423 C825 458 725 508 635 548 C545 588 475 618 395 668 C315 718 235 778 85 900 Z"/>
  <path stroke="#bfb09a" stroke-opacity="0.55" stroke-width="2.4" stroke-linecap="round" d="M80 900 C220 760 300 700 390 645 C470 590 540 560 630 520 C720 480 820 430 920 400 C1020 370 1120 350 1350 320"/>
  <path stroke="#d5cabb" stroke-opacity="0.45" stroke-width="1.5" stroke-linecap="round" d="M110 900 C250 770 330 715 420 660 C500 605 570 580 660 545 C750 510 850 460 950 430 C1050 400 1150 380 1370 350"/>

  <!-- side path to pond -->
  <path fill="#d5cabb" fill-opacity="0.22" stroke="#bfb09a" stroke-opacity="0.35" stroke-width="1.8" d="M390 645 C430 660 470 668 510 672 C540 674 560 672 580 670"/>
  <path stroke="#d5cabb" stroke-opacity="0.4" stroke-width="1.2" d="M400 650 C440 665 480 673 520 676 C550 678 570 676 590 674"/>

  <!-- stepping stones (doubled) -->
  <g fill="#fffef9" fill-opacity="0.48" stroke="#bfb09a" stroke-opacity="0.32">
    <ellipse cx="240" cy="760" rx="16" ry="9"/><ellipse cx="310" cy="700" rx="18" ry="10"/><ellipse cx="380" cy="655" rx="17" ry="9"/>
    <ellipse cx="450" cy="615" rx="19" ry="11"/><ellipse cx="530" cy="575" rx="18" ry="10"/><ellipse cx="610" cy="538" rx="20" ry="11"/>
    <ellipse cx="700" cy="505" rx="22" ry="12"/><ellipse cx="790" cy="472" rx="18" ry="10"/><ellipse cx="880" cy="445" rx="19" ry="11"/>
    <ellipse cx="970" cy="420" rx="18" ry="10"/><ellipse cx="1060" cy="395" rx="20" ry="11"/><ellipse cx="1150" cy="375" rx="17" ry="9"/>
    <ellipse cx="1240" cy="355" rx="18" ry="10"/><ellipse cx="1320" cy="338" rx="16" ry="9"/>
    <ellipse cx="470" cy="648" rx="12" ry="7"/><ellipse cx="520" cy="668" rx="11" ry="6"/><ellipse cx="555" cy="678" rx="12" ry="7"/>
  </g>

  <!-- stone wall sections -->
  <g fill="#d5cabb" fill-opacity="0.35" stroke="#bfb09a" stroke-opacity="0.3">
    <rect x="250" y="600" width="12" height="8" rx="1"/><rect x="264" y="598" width="14" height="9" rx="1"/><rect x="280" y="601" width="11" height="7" rx="1"/>
    <rect x="296" y="599" width="13" height="8" rx="1"/><rect x="312" y="602" width="12" height="7" rx="1"/><rect x="326" y="600" width="14" height="9" rx="1"/>
    <rect x="1080" y="580" width="12" height="8" rx="1"/><rect x="1094" y="578" width="14" height="9" rx="1"/><rect x="1110" y="581" width="11" height="7" rx="1"/>
    <rect x="1126" y="579" width="13" height="8" rx="1"/><rect x="1142" y="582" width="12" height="7" rx="1"/>
  </g>

  <!-- picket fences (extended) -->
  <g stroke="#a35a2c" stroke-opacity="0.32" stroke-width="1.8" stroke-linecap="round">
    <path d="M20 735 H280"/><path d="M35 735 V700 M55 735 V700 M75 735 V700 M95 735 V700 M115 735 V700 M135 735 V700 M155 735 V700 M175 735 V700 M195 735 V700 M215 735 V700 M235 735 V700 M255 735 V700"/>
    <path d="M1160 695 H1400"/><path d="M1175 695 V660 M1195 695 V660 M1215 695 V660 M1235 695 V660 M1255 695 V660 M1275 695 V660 M1295 695 V660 M1315 695 V660 M1335 695 V660 M1355 695 V660 M1375 695 V660"/>
    <path d="M350 620 H480"/><path d="M360 620 V595 M380 620 V595 M400 620 V595 M420 620 V595 M440 620 V595 M460 620 V595"/>
  </g>

  <!-- arbor / trellis -->
  <g>
    <rect x="830" y="520" width="120" height="90" fill="url(#trellis)" opacity="0.65"/>
    <path stroke="#a35a2c" stroke-opacity="0.35" stroke-width="2.5" d="M830 610 H950 M830 520 V610 M950 520 V610"/>
    <path stroke="#5a6442" stroke-opacity="0.38" stroke-width="1.6" d="M855 610 V565 C855 540 870 525 890 520 C910 525 925 540 925 565 V610"/>
    <path stroke="#5a6442" stroke-opacity="0.35" d="M870 550 C880 535 895 528 910 532 C925 536 935 548 938 562"/>
    <circle cx="878" cy="548" r="5" fill="#a35a2c" fill-opacity="0.3"/>
  </g>

  <!-- greenhouse -->
  <g stroke="#6f6558" stroke-opacity="0.34" stroke-width="1.6" fill="#fffef9" fill-opacity="0.2">
    <path d="M100 600 H220 V700 H100 Z"/><path d="M100 600 L160 555 L220 600"/>
    <path d="M130 600 V700 M160 600 V700 M190 600 V700 M100 640 H220 M100 670 H220"/>
    <path stroke="#5a6442" stroke-opacity="0.28" d="M145 655 C150 648 158 644 165 646 C172 648 178 654 180 662"/>
    <path stroke="#5a6442" stroke-opacity="0.28" d="M175 668 C180 661 188 657 195 659"/>
  </g>

  <!-- vegetable rows (dense) -->
  <g stroke="#5a6442" stroke-opacity="0.32" stroke-width="1.1">
    <path d="M20 850 H210 M20 830 H200 M20 810 H215 M20 790 H195 M20 770 H208 M20 750 H190"/>
    <path d="M30 860 H180 M30 840 H195 M30 820 H185"/>
    <path d="M1240 860 H1380 M1240 840 H1370 M1240 820 H1385 M1240 800 H1365 M1240 780 H1375"/>
    <!-- individual plants -->
    <circle cx="45" cy="845" r="3" fill="#5a6442" fill-opacity="0.25"/><circle cx="70" cy="838" r="3" fill="#5a6442" fill-opacity="0.25"/>
    <circle cx="95" cy="852" r="3" fill="#5a6442" fill-opacity="0.25"/><circle cx="120" cy="830" r="3" fill="#5a6442" fill-opacity="0.25"/>
    <circle cx="55" cy="815" r="3" fill="#5a6442" fill-opacity="0.25"/><circle cx="85" cy="808" r="3" fill="#5a6442" fill-opacity="0.25"/>
    <circle cx="1260" cy="848" r="3" fill="#5a6442" fill-opacity="0.25"/><circle cx="1290" cy="835" r="3" fill="#5a6442" fill-opacity="0.25"/>
    <circle cx="1320" cy="855" r="3" fill="#5a6442" fill-opacity="0.25"/><circle cx="1350" cy="828" r="3" fill="#5a6442" fill-opacity="0.25"/>
  </g>

  <!-- lavender rows (half) -->
  <g stroke="#7a4218" stroke-opacity="0.22" fill="#c8d4b8" fill-opacity="0.28">
    <rect x="294" y="725" width="8" height="38" rx="2"/><rect x="322" y="728" width="8" height="36" rx="2"/><rect x="350" y="726" width="8" height="37" rx="2"/>
    <rect x="1194" y="715" width="8" height="39" rx="2"/><rect x="1222" y="718" width="8" height="37" rx="2"/>
  </g>

  <!-- trees (many) -->
  <g stroke="#5a6442" stroke-opacity="0.44" stroke-width="2" stroke-linecap="round">
    <path d="M110 650 V585"/><path d="M110 605 C88 587 72 575 58 563"/><path d="M110 595 C132 577 148 565 162 553"/>
    <path d="M110 620 C92 603 80 593 68 583"/><path d="M110 610 C128 593 142 581 156 571"/>
    <path d="M200 620 V560"/><path d="M200 585 C182 568 170 558 158 548"/><path d="M200 575 C218 558 232 548 246 538"/>
    <path d="M1320 635 V570"/><path d="M1320 600 C1298 582 1282 570 1268 558"/><path d="M1320 590 C1342 572 1358 560 1372 548"/>
    <path d="M1380 655 V590"/><path d="M1380 620 C1362 602 1350 592 1338 582"/><path d="M1380 610 C1398 593 1412 583 1426 573"/>
    <path d="M420 560 V510"/><path d="M420 535 C404 522 392 514 380 506"/><path d="M420 528 C436 515 448 507 460 499"/>
    <path d="M1000 545 V495"/><path d="M1000 520 C984 507 972 499 960 491"/><path d="M1000 513 C1016 500 1028 492 1040 484"/>
  </g>
  <g fill="#dde3cf" fill-opacity="0.48">
    <circle cx="110" cy="553" r="24"/><circle cx="200" cy="528" r="20"/><circle cx="1320" cy="545" r="26"/><circle cx="1380" cy="568" r="22"/>
    <circle cx="420" cy="498" r="18"/><circle cx="1000" cy="483" r="17"/>
  </g>

  <!-- birdhouses -->
  <g fill="#a35a2c" fill-opacity="0.28" stroke="#7a4218" stroke-opacity="0.3">
    <rect x="98" y="568" width="22" height="16" rx="2"/><path d="M95 568 L109 558 L123 568"/><circle cx="109" cy="578" r="3" fill="#6f6558" fill-opacity="0.4"/>
    <rect x="1312" y="558" width="22" height="16" rx="2"/><path d="M1309 558 L1323 548 L1337 558"/><circle cx="1323" cy="568" r="3" fill="#6f6558" fill-opacity="0.4"/>
  </g>

  <!-- herb & wildflower clusters (half) -->
  <g stroke="#5a6442" stroke-opacity="0.42" stroke-width="1.5" stroke-linecap="round">
    <path d="M170 720 V660 M170 695 C156 678 140 670 126 660"/><path d="M170 682 C184 668 200 660 216 652"/><path d="M170 708 C156 694 142 686 130 678"/>
    <path d="M440 690 V630 M440 665 C426 648 410 640 396 630"/><path d="M440 652 C454 638 470 630 486 622"/><path d="M440 678 C426 664 412 656 400 648"/>
    <path d="M750 580 V520 M750 555 C736 538 720 530 706 520"/><path d="M750 542 C764 528 780 520 796 512"/>
    <path d="M1040 710 V650 M1040 680 C1026 662 1010 654 996 644"/><path d="M1040 667 C1054 652 1070 644 1086 636"/><path d="M1040 694 C1026 678 1012 670 1000 662"/>
    <path d="M1280 770 V710 M1280 740 C1266 722 1250 714 1236 704"/><path d="M1280 727 C1294 712 1310 704 1326 696"/>
    <path d="M640 760 V700 M640 730 C626 712 610 704 596 694"/><path d="M640 717 C654 702 670 694 686 686"/>
  </g>

  <!-- daisy clusters (half) -->
  <g>
    <circle cx="220" cy="640" r="8" fill="#fffef9" fill-opacity="0.58"/><circle cx="220" cy="640" r="3.5" fill="#ead9c8" fill-opacity="0.6"/>
    <g stroke="#5a6442" stroke-opacity="0.25" stroke-width="1"><path d="M220 632 V628 M216 636 L213 639 M224 636 L227 639 M216 644 L213 647 M224 644 L227 647 M220 648 V652"/></g>
    <circle cx="500" cy="570" r="8" fill="#fffef9" fill-opacity="0.58"/><circle cx="500" cy="570" r="3.5" fill="#a35a2c" fill-opacity="0.42"/>
    <circle cx="740" cy="530" r="9" fill="#fffef9" fill-opacity="0.6"/><circle cx="740" cy="530" r="4" fill="#a35a2c" fill-opacity="0.45"/>
    <circle cx="900" cy="490" r="8" fill="#fffef9" fill-opacity="0.55"/><circle cx="900" cy="490" r="3.5" fill="#a35a2c" fill-opacity="0.4"/>
    <circle cx="990" cy="650" r="8" fill="#ead9c8" fill-opacity="0.54"/><circle cx="990" cy="650" r="3.5" fill="#a35a2c" fill-opacity="0.42"/>
    <circle cx="1080" cy="640" r="8" fill="#fffef9" fill-opacity="0.55"/><circle cx="1080" cy="640" r="3.5" fill="#a35a2c" fill-opacity="0.4"/>
    <circle cx="1175" cy="668" r="8" fill="#ead9c8" fill-opacity="0.52"/>
    <circle cx="650" cy="720" r="7" fill="#fffef9" fill-opacity="0.52"/>
    <circle cx="820" cy="600" r="7" fill="#fffef9" fill-opacity="0.5"/>
  </g>

  <!-- tulips & poppies (half) -->
  <g fill="#a35a2c" fill-opacity="0.3" stroke="#7a4218" stroke-opacity="0.28" stroke-width="1.2">
    <path d="M580 620 C574 608 580 596 586 608 C592 596 598 608 592 620 C586 632 580 632 580 620 Z"/><path d="M586 620 V638" stroke="#5a6442" stroke-opacity="0.38" fill="none"/>
    <path d="M870 570 C864 558 870 546 876 558 C882 546 888 558 882 570 C876 582 870 582 870 570 Z"/><path d="M876 570 V588" stroke="#5a6442" stroke-opacity="0.38" fill="none"/>
    <path d="M360 700 C354 688 360 676 366 688 C372 676 378 688 372 700 C366 712 360 712 360 700 Z"/><path d="M366 700 V718" stroke="#5a6442" stroke-opacity="0.38" fill="none"/>
    <circle cx="710" cy="700" r="8" fill="#a35a2c" fill-opacity="0.35"/><path d="M710 708 V722" stroke="#5a6442" stroke-opacity="0.38"/>
  </g>

  <!-- mushrooms -->
  <g fill="#ead9c8" fill-opacity="0.45" stroke="#bfb09a" stroke-opacity="0.35">
    <ellipse cx="395" cy="778" rx="10" ry="6"/><path d="M395 784 V796" stroke-width="1.8"/>
    <ellipse cx="415" cy="785" rx="7" ry="4"/><path d="M415 789 V798" stroke-width="1.4"/>
    <ellipse cx="1125" cy="790" rx="9" ry="5"/><path d="M1125 795 V806" stroke-width="1.6"/>
  </g>

  <!-- bushes (dense) -->
  <g fill="#dde3cf" fill-opacity="0.42" stroke="#6f6558" stroke-opacity="0.3" stroke-width="1.4">
    <ellipse cx="70" cy="840" rx="62" ry="28"/><ellipse cx="150" cy="855" rx="48" ry="20"/><ellipse cx="230" cy="848" rx="40" ry="18"/>
    <ellipse cx="520" cy="870" rx="95" ry="30"/><ellipse cx="680" cy="865" rx="72" ry="26"/><ellipse cx="860" cy="872" rx="80" ry="28"/>
    <ellipse cx="1040" cy="858" rx="58" ry="24"/><ellipse cx="1180" cy="848" rx="72" ry="28"/><ellipse cx="1300" cy="862" rx="55" ry="22"/><ellipse cx="1375" cy="872" rx="45" ry="20"/>
    <ellipse cx="600" cy="830" rx="38" ry="16"/><ellipse cx="960" cy="835" rx="42" ry="18"/>
  </g>

  <!-- garden structures -->
  <g stroke="#6f6558" stroke-opacity="0.38" stroke-width="1.8" stroke-linecap="round">
    <path d="M660 650 H760"/><path d="M670 650 V672 M750 650 V672"/><path d="M665 660 H755"/><path d="M668 668 H752"/>
    <path d="M700 650 V640 C700 632 708 626 716 626 C724 626 732 632 732 640 V650"/>
  </g>

  <!-- wheelbarrow -->
  <g stroke="#a35a2c" stroke-opacity="0.34" stroke-width="1.6" stroke-linecap="round" stroke-linejoin="round">
    <path d="M150 810 H210 L225 795"/><path d="M150 810 V825 H210 V810"/><circle cx="232" cy="825" r="10" fill="none"/>
    <path d="M165 815 H195" stroke-opacity="0.25"/>
  </g>

  <!-- watering can + tools -->
  <g stroke="#a35a2c" stroke-opacity="0.34" stroke-width="1.6" stroke-linecap="round" stroke-linejoin="round">
    <path d="M360 830 H392 C400 830 406 824 406 816 V808 C406 800 400 794 392 794 H360 Z"/><path d="M406 806 H422 L432 798"/><path d="M368 794 V786"/>
    <path d="M320 800 L320 840" stroke="#6f6558"/><path d="M318 800 H322 M316 820 H324 M318 840 H322"/>
    <path d="M340 805 L340 835" stroke="#6f6558"/><path d="M336 805 L344 805 L340 798 Z" fill="#6f6558" fill-opacity="0.2"/>
  </g>

  <!-- compost bin -->
  <g fill="#d5cabb" fill-opacity="0.32" stroke="#bfb09a" stroke-opacity="0.35">
    <rect x="1280" y="800" width="50" height="40" rx="3"/><path d="M1285 810 H1325 M1285 820 H1325 M1285 830 H1325"/>
    <path stroke="#5a6442" stroke-opacity="0.28" d="M1295 835 C1300 828 1308 824 1315 826"/>
  </g>

  <!-- bird bath + fountain -->
  <g fill="#fffef9" fill-opacity="0.38" stroke="#bfb09a" stroke-opacity="0.38">
    <ellipse cx="980" cy="825" rx="32" ry="10"/><path d="M980 835 V858" stroke-width="2.2"/><ellipse cx="980" cy="858" rx="22" ry="6" fill="#d5cabb" fill-opacity="0.32"/>
    <ellipse cx="720" cy="800" rx="20" ry="6"/><path d="M720 806 V822" stroke-width="1.8"/><path d="M720 800 V792" stroke="#a35a2c" stroke-opacity="0.3"/>
  </g>

  <!-- lantern posts -->
  <g stroke="#6f6558" stroke-opacity="0.35" stroke-width="1.8">
    <path d="M500 640 V700"/><rect x="492" y="628" width="16" height="14" rx="2" fill="#ead9c8" fill-opacity="0.35" stroke="#a35a2c" stroke-opacity="0.28"/>
    <path d="M1050 600 V665"/><rect x="1042" y="588" width="16" height="14" rx="2" fill="#ead9c8" fill-opacity="0.35" stroke="#a35a2c" stroke-opacity="0.28"/>
  </g>

  <!-- garden sign -->
  <g stroke="#a35a2c" stroke-opacity="0.32" stroke-width="1.6">
    <path d="M890 700 V750"/><rect x="860" y="680" width="70" height="22" rx="3" fill="#fffef9" fill-opacity="0.35"/>
    <path d="M872 692 H908" stroke-opacity="0.22" stroke-width="1.2"/>
  </g>

  <!-- rock garden -->
  <g fill="#d5cabb" fill-opacity="0.42" stroke="#bfb09a" stroke-opacity="0.28">
    <ellipse cx="450" cy="820" rx="22" ry="12"/><ellipse cx="478" cy="828" rx="16" ry="9"/><ellipse cx="465" cy="838" rx="12" ry="7"/>
    <ellipse cx="1020" cy="815" rx="18" ry="10"/><ellipse cx="1042" cy="822" rx="14" ry="8"/><ellipse cx="1030" cy="832" rx="11" ry="6"/>
  </g>

  <!-- pebbles & scatter -->
  <g fill="#d5cabb" fill-opacity="0.45">
    <circle cx="540" cy="825" r="3"/><circle cx="555" cy="832" r="2.5"/><circle cx="570" cy="826" r="2"/><circle cx="585" cy="834" r="2.5"/>
    <circle cx="1100" cy="818" r="3"/><circle cx="1115" cy="825" r="2.5"/><circle cx="1130" cy="820" r="2"/>
    <circle cx="380" cy="860" r="2.5"/><circle cx="395" cy="868" r="2"/><circle cx="750" cy="845" r="2.5"/><circle cx="765" cy="852" r="2"/>
    <circle cx="900" cy="838" r="2"/><circle cx="915" cy="844" r="2.5"/><circle cx="1245" cy="855" r="2"/>
  </g>

  <!-- static butterflies in illustration (half) -->
  <g stroke="#6f6558" stroke-opacity="0.28" stroke-width="1.2" fill="#ead9c8" fill-opacity="0.35">
    <ellipse cx="620" cy="590" rx="8" ry="5"/><path d="M620 590 H628"/><ellipse cx="612" cy="590" rx="6" ry="4"/><ellipse cx="628" cy="590" rx="6" ry="4"/>
    <ellipse cx="950" cy="560" rx="7" ry="4"/><path d="M950 560 H957"/><ellipse cx="943" cy="560" rx="5" ry="3"/><ellipse cx="957" cy="560" rx="5" ry="3"/>
  </g>

  <!-- bee skep -->
  <g fill="#ead9c8" fill-opacity="0.38" stroke="#a35a2c" stroke-opacity="0.3">
    <ellipse cx="128" cy="692" rx="18" ry="14"/><path d="M110 692 H146 M112 686 H144 M114 680 H142 M116 674 H140"/>
    <path stroke="#5a6442" stroke-opacity="0.3" d="M128 678 C132 672 138 670 144 672"/>
  </g>

  <!-- clothesline with towel -->
  <g stroke="#bfb09a" stroke-opacity="0.35" stroke-width="1.2">
    <path d="M760 480 H920"/><path d="M760 480 V460 M920 480 V460"/><rect x="830" y="478" width="28" height="18" rx="2" fill="#fffef9" fill-opacity="0.3"/>
  </g>
</svg>